<?xml version="1.0" encoding="UTF-8"?>
<svg width="1024px" height="1024px" viewBox="0 0 1024 1024" version="1.1" xmlns="http://www.w3.org/2000/svg" xmlns:xlink="http://www.w3.org/1999/xlink">
    <!-- Generator: Sketch 46 (44423) - http://www.bohemiancoding.com/sketch -->
    <title>ForkColour</title>
    <desc>Created with Sketch.</desc>
    <defs>
        <radialGradient cx="100%" cy="0%" fx="100%" fy="0%" r="119.947041%" gradientTransform="translate(1.000000,0.000000),scale(1.000000,0.216418),rotate(98.157659),translate(-1.000000,-0.000000)" id="radialGradient-1">
            <stop stop-color="#EEEEEE" offset="0%"></stop>
            <stop stop-color="#CBCBCB" offset="100%"></stop>
        </radialGradient>
        <path d="M487.831082,184.033621 L488.033621,184.033621 L488.033621,0.0336213336 L488.033621,0.0336213336 C488.033621,-13.2212127 498.778787,-23.9663787 512.033621,-23.9663787 C525.288455,-23.9663787 536.033621,-13.2212127 536.033621,0.0336213336 L536.033621,184.033621 L536.236161,184.033621 C536.102684,184.686827 536.033621,185.354579 536.033621,186.033621 C536.033621,193.765608 544.987926,200.033621 556.033621,200.033621 C567.079316,200.033621 576.033621,193.765608 576.033621,186.033621 C576.033621,185.354579 575.964559,184.686827 575.831082,184.033621 L576.033621,184.033621 L576.033621,2.03362133 L576.033621,2.03362133 C576.033621,-12.3257822 587.674218,-23.9663787 602.033621,-23.9663787 C616.393025,-23.9663787 628.033621,-12.3257822 628.033621,2.03362133 L628.033621,210.033621 C628.033621,210.99453 627.981494,211.943264 627.879912,212.87715 C627.981584,213.91555 628.033621,214.968509 628.033621,216.033621 L628.033621,284.033621 C628.033621,326.571146 601.474102,362.905362 564.033621,377.357713 L564.033621,1016.03362 C564.033621,1033.70673 549.706733,1048.03362 532.033621,1048.03362 L496.033621,1048.03362 C478.360509,1048.03362 464.033621,1033.70673 464.033621,1016.03362 L464.033621,378.804062 C424.49897,365.459718 396.033621,328.070889 396.033621,284.033621 L396.033621,216.033621 L396.033621,216.033621 C396.033621,214.968509 396.085659,213.91555 396.18733,212.87715 C396.085749,211.943264 396.033621,210.99453 396.033621,210.033621 L396.033621,2.03362133 L396.033621,2.03362133 C396.033621,-12.3257822 407.674218,-23.9663787 422.033621,-23.9663787 L422.033621,-23.9663787 L422.033621,-23.9663787 C436.393025,-23.9663787 448.033621,-12.3257822 448.033621,2.03362133 L448.033621,184.033621 L448.236161,184.033621 C448.102684,184.686827 448.033621,185.354579 448.033621,186.033621 C448.033621,193.765608 456.987926,200.033621 468.033621,200.033621 C479.079316,200.033621 488.033621,193.765608 488.033621,186.033621 C488.033621,185.354579 487.964559,184.686827 487.831082,184.033621 Z" id="path-2"></path>
    </defs>
    <g id="Page-1" stroke="none" stroke-width="1" fill="none" fill-rule="evenodd">
        <g id="ForkColour">
            <g id="Fork-Colour" transform="translate(512.033621, 512.033621) rotate(45.000000) translate(-512.033621, -512.033621) ">
                <use fill="url(#radialGradient-1)" fill-rule="evenodd" xlink:href="#path-2"></use>
                <path stroke="#CECECE" stroke-width="4" d="M534.033621,186.033621 L536.236161,186.033621 L536.236161,184.033621 L534.276652,183.633213 C534.115265,184.42301 534.033621,185.224932 534.033621,186.033621 Z M578.033621,186.033621 C578.033621,185.224932 577.951978,184.42301 577.79059,183.633213 L575.831082,184.033621 L575.831082,186.033621 L578.033621,186.033621 Z M446.033621,186.033621 L448.236161,186.033621 L448.236161,184.033621 L446.276652,183.633213 C446.115265,184.42301 446.033621,185.224932 446.033621,186.033621 Z M490.033621,186.033621 C490.033621,185.224932 489.951978,184.42301 489.79059,183.633213 L487.831082,184.033621 L487.831082,186.033621 L490.033621,186.033621 Z M490.033621,186.033621 L490.033621,0.0336213336 C490.033621,-12.1166432 499.883357,-21.9663787 512.033621,-21.9663787 C524.183886,-21.9663787 534.033621,-12.1166432 534.033621,0.0336213336 L534.033621,186.033621 C534.033621,195.054023 544.004477,202.033621 556.033621,202.033621 C568.062766,202.033621 578.033621,195.054023 578.033621,186.033621 L578.033621,2.03362133 C578.033621,-11.2212127 588.778787,-21.9663787 602.033621,-21.9663787 C615.288455,-21.9663787 626.033621,-11.2212127 626.033621,2.03362133 L626.033621,210.033621 C626.033621,210.916424 625.986043,211.792986 625.89164,212.660879 L625.869291,212.866346 L625.889431,213.072041 C625.985333,214.051525 626.033621,215.039461 626.033621,216.033621 L626.033621,284.033621 C626.033621,324.891519 600.798027,361.022502 563.313399,375.491894 L562.033621,375.985899 L562.033621,1016.03362 C562.033621,1032.60216 548.602164,1046.03362 532.033621,1046.03362 L496.033621,1046.03362 C479.465079,1046.03362 466.033621,1032.60216 466.033621,1016.03362 L466.033621,377.368275 L464.673239,376.909098 C425.166365,363.574129 398.033621,326.40178 398.033621,284.033621 L398.033621,216.033621 C398.033621,215.039461 398.081909,214.051525 398.177812,213.072041 L398.197952,212.866346 L398.175603,212.660879 C398.081199,211.792986 398.033621,210.916424 398.033621,210.033621 L398.033621,2.03362133 C398.033621,-11.2212127 408.778787,-21.9663787 422.033621,-21.9663787 C435.288455,-21.9663787 446.033621,-11.2212127 446.033621,2.03362133 L446.033621,186.033621 C446.033621,195.054023 456.004477,202.033621 468.033621,202.033621 C480.062766,202.033621 490.033621,195.054023 490.033621,186.033621 Z"></path>
            </g>
        </g>
    </g>
</svg>