<?xml version="1.0" encoding="UTF-8"?>
<svg width="1024px" height="1024px" viewBox="0 0 1024 1024" version="1.1" xmlns="http://www.w3.org/2000/svg" xmlns:xlink="http://www.w3.org/1999/xlink">
    <!-- Generator: Sketch 46 (44423) - http://www.bohemiancoding.com/sketch -->
    <title>ForkMono</title>
    <desc>Created with Sketch.</desc>
    <defs>
        <path d="M487.831082,184.033621 L488.033621,184.033621 L488.033621,0.0336213336 L488.033621,0.0336213336 C488.033621,-13.2212127 498.778787,-23.9663787 512.033621,-23.9663787 C525.288455,-23.9663787 536.033621,-13.2212127 536.033621,0.0336213336 L536.033621,184.033621 L536.236161,184.033621 C536.102684,184.686827 536.033621,185.354579 536.033621,186.033621 C536.033621,193.765608 544.987926,200.033621 556.033621,200.033621 C567.079316,200.033621 576.033621,193.765608 576.033621,186.033621 C576.033621,185.354579 575.964559,184.686827 575.831082,184.033621 L576.033621,184.033621 L576.033621,2.03362133 L576.033621,2.03362133 C576.033621,-12.3257822 587.674218,-23.9663787 602.033621,-23.9663787 C616.393025,-23.9663787 628.033621,-12.3257822 628.033621,2.03362133 L628.033621,210.033621 C628.033621,210.99453 627.981494,211.943264 627.879912,212.87715 C627.981584,213.91555 628.033621,214.968509 628.033621,216.033621 L628.033621,284.033621 C628.033621,326.571146 601.474102,362.905362 564.033621,377.357713 L564.033621,1016.03362 C564.033621,1033.70673 549.706733,1048.03362 532.033621,1048.03362 L496.033621,1048.03362 C478.360509,1048.03362 464.033621,1033.70673 464.033621,1016.03362 L464.033621,378.804062 C424.49897,365.459718 396.033621,328.070889 396.033621,284.033621 L396.033621,216.033621 L396.033621,216.033621 C396.033621,214.968509 396.085659,213.91555 396.18733,212.87715 C396.085749,211.943264 396.033621,210.99453 396.033621,210.033621 L396.033621,2.03362133 L396.033621,2.03362133 C396.033621,-12.3257822 407.674218,-23.9663787 422.033621,-23.9663787 L422.033621,-23.9663787 L422.033621,-23.9663787 C436.393025,-23.9663787 448.033621,-12.3257822 448.033621,2.03362133 L448.033621,184.033621 L448.236161,184.033621 C448.102684,184.686827 448.033621,185.354579 448.033621,186.033621 C448.033621,193.765608 456.987926,200.033621 468.033621,200.033621 C479.079316,200.033621 488.033621,193.765608 488.033621,186.033621 C488.033621,185.354579 487.964559,184.686827 487.831082,184.033621 Z" id="path-1"></path>
    </defs>
    <g id="Page-1" stroke="none" stroke-width="1" fill="none" fill-rule="evenodd">
        <g id="ForkMono">
            <g id="Fork-Colour" transform="translate(512.033621, 512.033621) rotate(45.000000) translate(-512.033621, -512.033621) ">
                <use fill="#FFFFFF" fill-rule="evenodd" xlink:href="#path-1"></use>
                <path stroke="#000000" stroke-width="7" d="M532.615339,187.533621 L536.236161,187.533621 L536.236161,184.033621 L532.807021,183.332907 C532.625507,184.221199 532.533621,185.123721 532.533621,186.033621 C532.533621,186.540205 532.561239,187.040424 532.615339,187.533621 Z M579.451903,187.533621 C579.506004,187.040424 579.533621,186.540205 579.533621,186.033621 C579.533621,185.123721 579.441736,184.221199 579.260221,183.332907 L575.831082,184.033621 L575.831082,187.533621 L579.451903,187.533621 Z M444.615339,187.533621 L448.236161,187.533621 L448.236161,184.033621 L444.807021,183.332907 C444.625507,184.221199 444.533621,185.123721 444.533621,186.033621 C444.533621,186.540205 444.561239,187.040424 444.615339,187.533621 Z M491.451903,187.533621 C491.506004,187.040424 491.533621,186.540205 491.533621,186.033621 C491.533621,185.123721 491.441736,184.221199 491.260221,183.332907 L487.831082,184.033621 L487.831082,187.533621 L491.451903,187.533621 Z M491.451903,187.533621 L491.533621,187.533621 L491.533621,0.0336213336 C491.533621,-11.288216 500.711784,-20.4663787 512.033621,-20.4663787 C523.355459,-20.4663787 532.533621,-11.288216 532.533621,0.0336213336 L532.533621,187.533621 L532.615339,187.533621 C533.62776,196.763236 543.914492,203.533621 556.033621,203.533621 C568.152751,203.533621 578.439483,196.763236 579.451903,187.533621 L579.533621,187.533621 L579.533621,2.03362133 C579.533621,-10.3927855 589.607214,-20.4663787 602.033621,-20.4663787 C614.460028,-20.4663787 624.533621,-10.3927855 624.533621,2.03362133 L624.533621,210.033621 C624.533621,210.862212 624.488982,211.684626 624.400436,212.498677 L624.361325,212.858243 L624.396569,213.218209 C624.487718,214.149135 624.533621,215.08829 624.533621,216.033621 L624.533621,284.033621 C624.533621,324.266408 599.684117,359.844608 562.773232,374.09253 L560.533621,374.957039 L560.533621,1016.03362 C560.533621,1031.77374 547.773737,1044.53362 532.033621,1044.53362 L496.033621,1044.53362 C480.293506,1044.53362 467.533621,1031.77374 467.533621,1016.03362 L467.533621,376.291435 L465.152952,375.487874 C426.251381,362.357217 399.533621,325.753404 399.533621,284.033621 L399.533621,216.033621 C399.533621,215.08829 399.579525,214.149135 399.670673,213.218209 L399.705918,212.858243 L399.666807,212.498677 C399.57826,211.684626 399.533621,210.862212 399.533621,210.033621 L399.533621,2.03362133 C399.533621,-10.3927855 409.607214,-20.4663787 422.033621,-20.4663787 C434.460028,-20.4663787 444.533621,-10.3927855 444.533621,2.03362133 L444.533621,187.533621 L444.615339,187.533621 C445.62776,196.763236 455.914492,203.533621 468.033621,203.533621 C480.152751,203.533621 490.439483,196.763236 491.451903,187.533621 Z"></path>
            </g>
        </g>
    </g>
</svg>