<?xml version="1.0" encoding="UTF-8"?>
<svg width="1024px" height="1024px" viewBox="0 0 1024 1024" version="1.1" xmlns="http://www.w3.org/2000/svg" xmlns:xlink="http://www.w3.org/1999/xlink">
    <!-- Generator: Sketch 45.2 (43514) - http://www.bohemiancoding.com/sketch -->
    <title>GarbageBinMono</title>
    <desc>Created with Sketch.</desc>
    <defs></defs>
    <g id="Page-1" stroke="none" stroke-width="1" fill="none" fill-rule="evenodd">
        <g id="GarbageBinMono">
            <g id="Garbage-Bin-Mono" transform="translate(113.000000, 29.000000)">
                <path d="M119.83016,175.636364 L679.16984,175.636364 L679.16984,175.636364 C696.809903,175.636364 711.11,189.93646 711.11,207.576524 L711.11,902.11968 L711.11,902.11968 C711.11,937.399807 682.509807,966 647.22968,966 L151.77032,966 L151.77032,966 C116.490193,966 87.89,937.399807 87.89,902.11968 L87.89,207.576524 L87.89,207.576524 C87.89,189.93646 102.190097,175.636364 119.83016,175.636364 Z" id="Rectangle-3" stroke="#000000" stroke-width="39.9252" fill="#FFFFFF"></path>
                <rect id="Rectangle-4" fill="#000000" x="183.77" y="271.438017" width="39.95" height="598.760331"></rect>
                <rect id="Rectangle-4-Copy" fill="#000000" x="319.6" y="271.438017" width="39.95" height="598.760331"></rect>
                <rect id="Rectangle-4-Copy-2" fill="#000000" x="455.43" y="271.438017" width="39.95" height="598.760331"></rect>
                <rect id="Rectangle-4-Copy-3" fill="#000000" x="583.27" y="271.438017" width="39.95" height="598.760331"></rect>
                <path d="M47.9008264,79.8347107 L751.099174,79.8347107 L751.099174,79.8347107 C777.55407,79.8347107 799,101.280641 799,127.735537 L799,159.666284 L799,159.666284 C799,168.486315 791.849952,175.636364 783.02992,175.636364 L15.97008,175.636364 L15.97008,175.636364 C7.15004836,175.636364 -6.96214488e-16,168.486315 -1.77635684e-15,159.666284 L0,127.735537 L0,127.735537 C-3.23979036e-15,101.280641 21.4459305,79.8347107 47.9008264,79.8347107 Z" id="Rectangle-5" stroke="#000000" stroke-width="39.9252" fill="#FFFFFF"></path>
                <path d="M279.6252,0 L519.3748,0 L519.3748,0 C541.424879,-4.32193426e-14 559.3,17.8751209 559.3,39.9252 L559.3,79.8347107 L239.7,79.8347107 L239.7,39.9252 L239.7,39.9252 C239.7,17.8751209 257.575121,4.05053382e-15 279.6252,0 Z" id="Rectangle-6" stroke="#000000" stroke-width="39.9252" fill="#FFFFFF"></path>
            </g>
        </g>
    </g>
</svg>