<?xml version="1.0" encoding="UTF-8"?>
<svg width="1024px" height="1024px" viewBox="0 0 1024 1024" version="1.1" xmlns="http://www.w3.org/2000/svg" xmlns:xlink="http://www.w3.org/1999/xlink">
    <!-- Generator: Sketch 46 (44423) - http://www.bohemiancoding.com/sketch -->
    <title>KnifeColour</title>
    <desc>Created with Sketch.</desc>
    <defs>
        <linearGradient x1="100%" y1="0%" x2="30.5796736%" y2="99.1604694%" id="linearGradient-1">
            <stop stop-color="#EEEEEE" offset="0%"></stop>
            <stop stop-color="#CBCBCB" offset="100%"></stop>
        </linearGradient>
        <path d="M581.925837,481.042311 C581.975013,481.76791 582,482.500144 582,483.238215 L582,1016 C582,1033.67311 567.673112,1048 550,1048 L522.325762,1048 C504.65265,1048 490.325762,1033.67311 490.325762,1016 L490.325762,483.238215 C490.325762,481.440707 490.473968,479.677815 490.758828,477.961091 C463.118019,469.327545 443.057176,443.527658 443.057176,413.042311 C443.057176,409.836279 443.283911,406.634262 443.735682,403.46022 C467.212647,238.516647 490.252354,123.188887 512.854803,57.4769397 C524.296556,24.2124069 535.167727,0.0160808859 545.468317,-15.1120382 L545.468317,-15.1120381 C551.684979,-24.2422346 564.126066,-26.6041208 573.256263,-20.3874586 C578.726421,-16.6628807 582,-10.4735632 582,-3.85577548 L582,481.042311 L581.925837,481.042311 Z" id="path-2"></path>
    </defs>
    <g id="Page-1" stroke="none" stroke-width="1" fill="none" fill-rule="evenodd">
        <g id="KnifeColour">
            <g id="Knife-Colour" transform="translate(512.500000, 512.000000) rotate(45.000000) translate(-512.500000, -512.000000) ">
                <use fill="url(#linearGradient-1)" fill-rule="evenodd" xlink:href="#path-2"></use>
                <path stroke="#CECECE" stroke-width="4" d="M580,479.042311 L580,481.042311 L582,481.042311 L582,479.042311 L580,479.042311 Z"></path>
            </g>
        </g>
    </g>
</svg>