<?xml version="1.0" encoding="UTF-8"?>
<svg width="1024px" height="1024px" viewBox="0 0 1024 1024" version="1.1" xmlns="http://www.w3.org/2000/svg" xmlns:xlink="http://www.w3.org/1999/xlink">
    <!-- Generator: Sketch 46.1 (44463) - http://www.bohemiancoding.com/sketch -->
    <title>LaptopBagColour</title>
    <desc>Created with Sketch.</desc>
    <defs>
        <linearGradient x1="1.64872519%" y1="36.468224%" x2="100%" y2="58.798235%" id="linearGradient-1">
            <stop stop-color="#363636" offset="0%"></stop>
            <stop stop-color="#767676" offset="100%"></stop>
        </linearGradient>
        <rect id="path-2" x="82.5" y="5.5" width="660" height="825"></rect>
        <rect id="path-3" x="363" y="363" width="110" height="44" rx="22"></rect>
    </defs>
    <g id="Page-1" stroke="none" stroke-width="1" fill="none" fill-rule="evenodd">
        <g id="LaptopBagColour">
            <g id="Laptop-Bag-Colour" transform="translate(100.000000, 138.000000)">
                <path d="M418,495 C266.121694,495 143,396.502645 143,275 C143,153.497355 266.121694,55 418,55 C569.878306,55 693,153.497355 693,275 C693,396.502645 569.878306,495 418,495 Z M429,462 C556.577777,462 660,378.277248 660,275 C660,171.722752 556.577777,88 429,88 C301.422223,88 198,171.722752 198,275 C198,378.277248 301.422223,462 429,462 Z" id="Handle" stroke="#383838" stroke-width="11" fill="#383838" transform="translate(418.000000, 275.000000) rotate(-90.000000) translate(-418.000000, -275.000000) "></path>
                <g id="Rectangle-9" transform="translate(412.500000, 418.000000) rotate(-90.000000) translate(-412.500000, -418.000000) ">
                    <use fill="url(#linearGradient-1)" fill-rule="evenodd" xlink:href="#path-2"></use>
                    <rect stroke="#2E2E2E" stroke-width="33" x="99" y="22" width="627" height="792"></rect>
                </g>
                <path d="M27.5,291.5 L194.520288,459.6887 L194.520288,459.6887 C215.170896,480.483772 243.265978,492.178543 272.572678,492.178543 L554.935664,492.178543 L554.935664,492.178543 C584.531451,492.178543 612.878665,480.252593 633.573225,459.094952 L797.5,291.5" id="Line-4" stroke="#2E2E2E" stroke-width="22" stroke-linecap="square"></path>
                <g id="Rectangle-14">
                    <use fill="#BCC6CC" fill-rule="evenodd" xlink:href="#path-3"></use>
                    <rect stroke="#262626" stroke-width="10" x="368" y="368" width="100" height="34" rx="17"></rect>
                </g>
            </g>
        </g>
    </g>
</svg>